<svg width="548" height="785" viewBox="0 0 548 785" fill="none" xmlns="http://www.w3.org/2000/svg">
<path d="M479.518 743.605C462.927 726.732 463.252 699.514 480.242 682.809C497.231 666.103 524.451 666.238 541.042 683.111" stroke="#E52931" stroke-width="13" stroke-linecap="round" stroke-linejoin="round"/>
<path d="M82.9929 267.26C68.9108 281.107 68.7022 303.73 82.527 317.79C96.3518 331.85 118.975 332.023 133.057 318.177L161.87 289.846" stroke="#009CB0" stroke-width="13" stroke-linecap="round" stroke-linejoin="round"/>
<path d="M342.921 475.677L447.948 582.491C468.515 603.408 468.28 636.988 447.424 657.495" stroke="#009CB0" stroke-width="13" stroke-linecap="round" stroke-linejoin="round"/>
<path d="M349.257 871.686L420.675 801.463C434.661 787.712 434.789 765.164 420.966 751.106C407.143 737.048 384.597 736.795 370.611 750.547L359.557 761.416" stroke="#FAB700" stroke-width="13" stroke-linecap="round" stroke-linejoin="round"/>
<path d="M-10.769 179.196C-28.6956 196.823 -29.0323 225.55 -11.5209 243.359C5.99057 261.169 34.7191 261.317 52.6457 243.69C70.5724 226.064 70.9089 197.337 53.3975 179.527L21.6902 147.28" stroke="#E52931" stroke-width="13" stroke-linecap="round" stroke-linejoin="round"/>
<path d="M221.466 468.252C206.719 453.255 182.777 452.884 167.989 467.424C153.202 481.964 153.168 505.909 167.915 520.907C182.661 535.904 206.604 536.275 221.391 521.735L307.481 437.087" stroke="#009CB0" stroke-width="13" stroke-linecap="round" stroke-linejoin="round"/>
<path d="M93.6005 697.041C106.849 710.515 106.722 732.124 93.3148 745.307C79.9079 758.489 58.2998 758.252 45.0508 744.778C31.8018 731.303 31.9297 709.694 45.3366 696.512L136.048 607.319" stroke="#FAB700" stroke-width="13" stroke-linecap="round" stroke-linejoin="round"/>
<path d="M-2.08426 456.651C22.0522 432.918 22.6875 394.425 -0.66525 370.675C-24.018 346.925 -62.5162 346.911 -86.6527 370.643C-110.789 394.376 -111.424 432.869 -88.0717 456.619L22.7571 569.334" stroke="#FFB017" stroke-width="13" stroke-linecap="round" stroke-linejoin="round"/>
<path d="M194.531 939.239C217.888 962.994 256.384 963.005 280.52 939.273C304.657 915.54 305.294 877.05 281.937 853.295L171.11 740.582" stroke="#009CB0" stroke-width="13" stroke-linecap="round" stroke-linejoin="round"/>
<path fill-rule="evenodd" clip-rule="evenodd" d="M265.14 542.977C287.753 520.742 323.916 520.851 345.912 543.221L386.83 584.836C408.827 607.208 408.325 643.365 385.711 665.6V665.6C363.097 687.835 326.936 687.727 304.939 665.356L264.021 623.741C242.025 601.371 242.526 565.212 265.14 542.977V542.977Z" stroke="#FAB700" stroke-width="13" stroke-linecap="round" stroke-linejoin="round"/>
<path d="M124.186 520.508L120.881 523.758C102.069 542.256 71.7815 541.959 53.2333 523.095V523.095C34.685 504.231 34.8994 473.943 53.7121 455.445L157.428 353.465C176.241 334.967 206.528 335.264 225.076 354.128V354.128C243.624 372.992 243.41 403.28 224.597 421.778L223.58 422.778" stroke="#FFB017" stroke-width="13" stroke-linecap="round" stroke-linejoin="round"/>
<path d="M132.033 659.252L155.472 683.09C171.212 699.098 196.228 700.029 211.342 685.168C226.456 670.306 225.947 645.279 210.207 629.271L163.329 581.595C147.587 565.585 122.573 564.655 107.459 579.516" stroke="#009CB0" stroke-width="13" stroke-linecap="round" stroke-linejoin="round"/>
<path d="M73.2402 371.151L17.051 314.005C-18.5063 277.843 -76.7758 277.479 -113.098 313.193" stroke="#009CB0" stroke-width="13" stroke-linecap="round" stroke-linejoin="round"/>
<path d="M-57.1077 559.403L-16.0663 601.143C11.4976 629.176 56.6386 629.486 84.7586 601.837" stroke="#009CB0" stroke-width="13" stroke-linecap="round" stroke-linejoin="round"/>
<path d="M147.664 772.752C150.224 770.236 150.258 766.12 147.741 763.56C145.225 761.001 141.109 760.966 138.549 763.483L147.664 772.752ZM-57.8806 870.254C-60.3975 867.694 -64.513 867.66 -67.0727 870.176C-69.6324 872.693 -69.6672 876.809 -67.1503 879.369L-57.8806 870.254ZM-182.931 855.867C-185.448 853.307 -189.563 853.272 -192.123 855.789C-194.683 858.306 -194.718 862.421 -192.201 864.981L-182.931 855.867ZM-87.584 877.183C-85.0242 874.666 -84.9895 870.55 -87.5064 867.99C-90.0233 865.431 -94.1387 865.396 -96.6985 867.913L-87.584 877.183ZM138.549 763.483L78.1581 822.863L87.2726 832.133L147.664 772.752L138.549 763.483ZM78.1581 822.863C71.2513 829.654 60.0364 829.566 53.1019 822.513L43.8323 831.628C55.7298 843.728 75.1747 844.028 87.2726 832.133L78.1581 822.863ZM53.1019 822.513C41.2022 810.411 21.7512 810.121 9.65505 822.015L18.7695 831.285C25.679 824.491 36.9 824.578 43.8323 831.628L53.1019 822.513ZM9.65505 822.015L6.08639 825.524L15.2009 834.793L18.7695 831.285L9.65505 822.015ZM6.08639 825.524C-6.00915 837.417 -6.0482 856.871 5.85164 868.973L15.1213 859.858C8.1891 852.808 8.29182 841.587 15.2009 834.793L6.08639 825.524ZM5.85164 868.973C12.7839 876.023 12.6815 887.244 5.77201 894.038L14.8865 903.308C26.9826 891.414 27.021 871.961 15.1213 859.858L5.85164 868.973ZM5.77201 894.038L1.82101 897.923L10.9355 907.192L14.8865 903.308L5.77201 894.038ZM1.82101 897.923C-7.27046 906.862 -22.0134 906.732 -31.1077 897.483L-40.3773 906.597C-26.3155 920.898 -3.34262 921.232 10.9355 907.192L1.82101 897.923ZM-31.1077 897.483L-41.9684 886.437L-51.2381 895.552L-40.3773 906.597L-31.1077 897.483ZM-41.9684 886.437L-57.8806 870.254L-67.1503 879.369L-51.2381 895.552L-41.9684 886.437ZM-192.201 864.981L-181.03 876.342L-171.76 867.228L-182.931 855.867L-192.201 864.981ZM-181.03 876.342C-155.434 902.374 -113.597 902.761 -87.584 877.183L-96.6985 867.913C-117.582 888.447 -151.188 888.15 -171.76 867.228L-181.03 876.342Z" fill="#E52931"/>
<path d="M330.194 791.123L321.588 799.585C309.45 811.519 289.905 811.324 277.94 799.155V799.155C265.97 786.981 266.104 767.436 278.242 755.501L285.37 748.492C297.416 736.647 297.55 717.252 285.676 705.175V705.175C273.796 693.093 254.401 692.901 242.355 704.745L233.582 713.371" stroke="#E52931" stroke-width="13" stroke-linecap="round" stroke-linejoin="round"/>
</svg>
