<svg width="688" height="907" viewBox="0 0 688 907" fill="none" xmlns="http://www.w3.org/2000/svg">
<path d="M346.667 859.294C346.667 839.545 330.682 823.534 310.964 823.534C291.245 823.534 275.26 839.545 275.26 859.294V899.701" stroke="#009CB0" stroke-width="13" stroke-linecap="round" stroke-linejoin="round"/>
<path d="M522.803 899.701L639.656 899.701C662.538 899.701 681.088 881.585 681.088 859.238" stroke="#009CB0" stroke-width="13" stroke-linecap="round" stroke-linejoin="round"/>
<path d="M15.8166 898.511L-133.983 898.511C-163.317 898.511 -187.097 874.8 -187.097 845.551" stroke="#009CB0" stroke-width="13" stroke-linecap="round" stroke-linejoin="round"/>
<path fill-rule="evenodd" clip-rule="evenodd" d="M331.196 642.638C318.05 642.638 307.393 653.294 307.393 666.44C307.393 679.586 318.05 690.242 331.196 690.242C344.341 690.242 354.998 679.586 354.998 666.44C354.998 653.294 344.341 642.638 331.196 642.638Z" stroke="#009CB0" stroke-width="13" stroke-linecap="round" stroke-linejoin="round"/>
<path fill-rule="evenodd" clip-rule="evenodd" d="M571.598 709.879C550.894 709.879 534.11 726.663 534.11 747.367C534.11 768.072 550.894 784.856 571.598 784.856C592.302 784.856 609.086 768.072 609.086 747.367C609.086 726.663 592.302 709.879 571.598 709.879Z" stroke="#009CB0" stroke-width="13" stroke-linecap="round" stroke-linejoin="round"/>
<path d="M571.3 665.845C525.127 665.845 487.695 702.743 487.695 748.26C487.695 793.777 525.127 830.675 571.3 830.675C617.474 830.675 654.906 793.777 654.906 748.26" stroke="#FFB017" stroke-width="13" stroke-linecap="round" stroke-linejoin="round"/>
<path d="M485.612 653.944C504.509 653.944 519.828 638.625 519.828 619.728C519.828 600.831 504.509 585.512 485.612 585.512C466.715 585.512 451.397 600.831 451.397 619.728V653.944" stroke="#009CB0" stroke-width="13" stroke-linecap="round" stroke-linejoin="round"/>
<path d="M475.199 854.18C475.199 829.039 454.951 808.658 429.975 808.658C404.998 808.658 384.75 829.039 384.75 854.18C384.75 879.321 404.998 899.701 429.975 899.701H475.199" stroke="#E52931" stroke-width="13" stroke-linecap="round" stroke-linejoin="round"/>
<path d="M202.18 43.2984C202.18 63.3451 218.17 79.5967 237.891 79.5967C257.611 79.5967 273.594 63.3451 273.594 43.2984C273.594 23.2516 257.611 7 237.891 7L118.285 7" stroke="#009CB0" stroke-width="13" stroke-linecap="round" stroke-linejoin="round"/>
<path d="M106.265 817.113C127.297 817.113 144.348 800.301 144.348 779.563C144.348 758.824 127.297 742.012 106.265 742.012C85.2317 742.012 68.181 758.824 68.181 779.563L68.181 900.297" stroke="#009CB0" stroke-width="13" stroke-linecap="round" stroke-linejoin="round"/>
<path d="M136.661 94.5921C136.661 113.653 121.331 129.105 102.421 129.105C83.5106 129.105 68.1812 113.653 68.1812 94.5921C68.1812 75.5307 83.5106 60.0789 102.421 60.0789L156.844 60.0789" stroke="#FFB017" stroke-width="13" stroke-linecap="round" stroke-linejoin="round"/>
<path d="M32.7755 565.532C13.8785 565.532 -1.44011 550.29 -1.44011 531.488C-1.44011 512.686 13.8785 497.444 32.7755 497.444C51.6726 497.444 66.9912 512.686 66.9912 531.488L66.9912 658.704" stroke="#FAB700" stroke-width="13" stroke-linecap="round" stroke-linejoin="round"/>
<path d="M643.897 561.884C662.794 561.884 678.113 546.793 678.113 528.177C678.113 509.56 662.794 494.469 643.897 494.469C625 494.469 609.681 509.56 609.681 528.177V665.845" stroke="#FAB700" stroke-width="13" stroke-linecap="round" stroke-linejoin="round"/>
<path d="M271.271 665.845C271.271 699.695 298.273 727.136 331.581 727.136C364.889 727.136 391.891 699.695 391.891 665.845C391.891 631.995 364.889 604.554 331.581 604.554H173.506" stroke="#FFB017" stroke-width="13" stroke-linecap="round" stroke-linejoin="round"/>
<path fill-rule="evenodd" clip-rule="evenodd" d="M22.3621 795.864C22.3621 827.578 -3.07018 853.287 -34.4428 853.287H-92.804C-124.179 853.287 -149.609 827.578 -149.609 795.864V795.864C-149.609 764.15 -124.179 738.442 -92.804 738.442H-34.4428C-3.07018 738.442 22.3621 764.15 22.3621 795.864V795.864Z" stroke="#FAB700" stroke-width="13" stroke-linecap="round" stroke-linejoin="round"/>
<path d="M137.208 711.11V706.476C137.208 680.092 158.654 658.704 185.11 658.704V658.704C211.565 658.704 233.011 680.092 233.011 706.476L233.011 851.93C233.011 878.313 211.565 899.701 185.11 899.701V899.701C158.654 899.701 137.208 878.313 137.208 851.93V850.504" stroke="#FFB017" stroke-width="13" stroke-linecap="round" stroke-linejoin="round"/>
<path d="M332.386 483.163H361.654C381.311 483.163 397.247 499.148 397.247 518.866C397.247 538.584 381.311 554.57 361.654 554.57H303.117C283.46 554.57 267.525 538.584 267.525 518.866V515.694C267.525 497.728 282.044 483.163 299.955 483.163" stroke="#009CB0" stroke-width="13" stroke-linecap="round" stroke-linejoin="round"/>
<path d="M32.7753 619.431H-0.65564C-23.1064 619.431 -41.3089 636.615 -41.3089 657.812C-41.3089 679.009 -23.1064 696.193 -0.65564 696.193H66.2063C88.6585 696.193 106.86 679.009 106.86 657.812" stroke="#009CB0" stroke-width="13" stroke-linecap="round" stroke-linejoin="round"/>
<path d="M279.426 779.5H359.569C410.284 779.5 451.397 738.206 451.397 687.267" stroke="#009CB0" stroke-width="13" stroke-linecap="round" stroke-linejoin="round"/>
<path d="M74.7268 160.048C74.7268 194.883 46.8505 223.124 12.4635 223.124L-97.244 223.124" stroke="#009CB0" stroke-width="13" stroke-linecap="round" stroke-linejoin="round"/>
<path d="M236.582 554.57H178.045C138.73 554.57 106.86 586.54 106.86 625.976" stroke="#009CB0" stroke-width="13" stroke-linecap="round" stroke-linejoin="round"/>
<path d="M-104.98 368.317V336.33C-104.98 304.043 -78.7964 277.869 -46.4933 277.869H-0.845215" stroke="#009CB0" stroke-width="13" stroke-linecap="round" stroke-linejoin="round"/>
<path d="M654.608 706.309C654.608 700.767 654.608 631.006 654.608 596.818" stroke="#009CB0" stroke-width="13" stroke-linecap="round" stroke-linejoin="round"/>
<path d="M125.009 208.843C125.009 206.975 125.009 183.471 125.009 171.949" stroke="#FFB017" stroke-width="13" stroke-linecap="round" stroke-linejoin="round"/>
<path d="M-59.1152 550.999C-59.1152 554.589 -56.205 557.499 -52.6152 557.499C-49.0253 557.499 -46.1152 554.589 -46.1152 550.999H-59.1152ZM15.4717 336.076C19.0615 336.076 21.9717 333.166 21.9717 329.576C21.9717 325.986 19.0615 323.076 15.4717 323.076L15.4717 336.076ZM113.405 256.996C116.995 256.996 119.905 254.086 119.905 250.496C119.905 246.906 116.995 243.996 113.405 243.996V256.996ZM31.3568 310.039C31.3568 313.628 34.2669 316.539 37.8568 316.539C41.4466 316.539 44.3568 313.628 44.3568 310.039H31.3568ZM-46.1152 550.999L-46.1152 466.305L-59.1152 466.305L-59.1152 550.999H-46.1152ZM-46.1152 466.305C-46.1152 456.619 -38.1891 448.684 -28.2984 448.684V435.684C-45.2679 435.684 -59.1152 449.338 -59.1152 466.305L-46.1152 466.305ZM-28.2984 448.684C-11.3258 448.684 2.51829 435.018 2.51829 418.054H-10.4817C-10.4817 427.744 -18.411 435.684 -28.2984 435.684V448.684ZM2.51829 418.054V413.049H-10.4817V418.054H2.51829ZM2.51829 413.049C2.51829 396.086 -11.3257 382.419 -28.2984 382.419V395.419C-18.4111 395.419 -10.4817 403.359 -10.4817 413.049H2.51829ZM-28.2984 382.419C-38.1859 382.419 -46.1152 374.479 -46.1152 364.788H-59.1152C-59.1152 381.752 -45.2711 395.419 -28.2984 395.419V382.419ZM-46.1152 364.788V359.247H-59.1152V364.788H-46.1152ZM-46.1152 359.247C-46.1152 346.497 -35.6858 336.076 -22.7146 336.076V323.076C-42.7709 323.076 -59.1152 339.223 -59.1152 359.247H-46.1152ZM-22.7146 336.076H-7.22394L-7.22394 323.076H-22.7146V336.076ZM-7.22394 336.076H15.4717L15.4717 323.076H-7.22394L-7.22394 336.076ZM113.405 243.996H97.4721V256.996H113.405V243.996ZM97.4721 243.996C60.9649 243.996 31.3568 273.557 31.3568 310.039H44.3568C44.3568 280.751 68.1296 256.996 97.4721 256.996V243.996Z" fill="#E52931"/>
<path fill-rule="evenodd" clip-rule="evenodd" d="M33.073 135.076C33.073 159.053 13.6245 178.495 -10.366 178.495V178.495C-34.3544 178.495 -53.805 159.053 -53.805 135.076V103.498C-53.805 79.5206 -34.3544 60.0789 -10.366 60.0789V60.0789C13.6245 60.0789 33.073 79.5206 33.073 103.498L33.073 135.076Z" stroke="#009CB0" stroke-width="13" stroke-linecap="round" stroke-linejoin="round"/>
</svg>
